<svg xmlns="http://www.w3.org/2000/svg" width="1200" height="630" viewBox="0 0 1200 630">
  <defs>
    <filter id="n">
      <feTurbulence type="fractalNoise" baseFrequency="0.85" numOctaves="3"/>
      <feColorMatrix values="0 0 0 0 1 0 0 0 0 1 0 0 0 0 1 0 0 0 0.02 0"/>
    </filter>
    <linearGradient id="sky" x1="50%" y1="0%" x2="50%" y2="100%">
      <stop offset="0%" stop-color="#0A0908"/>
      <stop offset="70%" stop-color="#0A0908"/>
      <stop offset="100%" stop-color="#120F0C"/>
    </linearGradient>
    <radialGradient id="glow" cx="50%" cy="100%" r="60%">
      <stop offset="0%" stop-color="#9A7F57" stop-opacity="0.18"/>
      <stop offset="60%" stop-color="#9A7F57" stop-opacity="0"/>
    </radialGradient>
  </defs>

  <!-- Background -->
  <rect width="1200" height="630" fill="url(#sky)"/>
  <rect x="0" y="360" width="1200" height="270" fill="url(#glow)"/>
  <rect width="1200" height="630" filter="url(#n)" opacity="0.5"/>

  <!-- Inner border frame -->
  <rect x="24" y="24" width="1152" height="582" fill="none" stroke="#9A7F57" stroke-opacity="0.2" stroke-width="1"/>

  <!-- Typography -->
  <text x="600" y="88" text-anchor="middle" font-family="Tenor Sans, serif" font-size="15" letter-spacing="8" fill="#9A7F57" fill-opacity="0.85">BY INVITATION</text>
  <text x="600" y="198" text-anchor="middle" font-family="Bodoni Moda, Didot, serif" font-size="124" font-weight="300" fill="#EFE9DA" letter-spacing="-2">Noblr</text>
  <line x1="570" y1="222" x2="630" y2="222" stroke="#9A7F57" stroke-width="1"/>
  <text x="600" y="280" text-anchor="middle" font-family="Bodoni Moda, Didot, serif" font-size="46" font-weight="300" fill="#EFE9DA" letter-spacing="-1">Олонхид биш.</text>
  <text x="600" y="328" text-anchor="middle" font-family="Fraunces, Georgia, serif" font-size="46" font-weight="300" font-style="italic" fill="#9C9483" letter-spacing="-0.5">Шилдгүүдэд.</text>

  <!-- Bogd Khan mountain range (far backdrop) -->
  <path d="M 0 450 L 80 418 L 180 440 L 300 402 L 420 432 L 540 398 L 660 424 L 780 400 L 920 424 L 1080 432 L 1200 420 L 1200 500 L 0 500 Z" fill="#1A1713"/>
  <path d="M 0 475 L 120 448 L 250 468 L 390 438 L 510 462 L 650 432 L 790 452 L 930 430 L 1060 454 L 1200 444 L 1200 520 L 0 520 Z" fill="#221E17"/>

  <!-- ========== ULAANBAATAR CITYSCAPE ========== -->

  <!-- Far-left: Gandan monastery hint (stepped tiered building) -->
  <rect x="32" y="502" width="42" height="78" fill="#2A2520"/>
  <polygon points="30,502 76,502 68,488 38,488" fill="#2A2520"/>
  <polygon points="40,488 66,488 58,476 48,476" fill="#2A2520"/>
  <polygon points="48,476 58,476 53,468" fill="#9A7F57" opacity="0.5"/>

  <!-- Small building cluster -->
  <rect x="90" y="520" width="34" height="60" fill="#24201B"/>
  <rect x="130" y="508" width="30" height="72" fill="#2A2520"/>

  <!-- Children's Park observation tower (алсыг харагч) -->
  <rect x="192" y="398" width="5" height="182" fill="#4A4030"/>
  <rect x="185" y="448" width="19" height="16" fill="#4A4030"/>
  <rect x="188" y="430" width="13" height="10" fill="#4A4030"/>
  <polygon points="192,398 197,398 194.5,382" fill="#4A4030"/>
  <!-- observation platform windows (tiny accent) -->
  <rect x="187" y="452" width="15" height="2" fill="#9A7F57" opacity="0.6"/>

  <!-- Context buildings -->
  <rect x="220" y="510" width="42" height="70" fill="#24201B"/>
  <rect x="272" y="492" width="50" height="88" fill="#2E2923"/>

  <!-- BLUE SKY HOTEL — the signature curved / domed top -->
  <!-- Main tower body with pronounced arched crown -->
  <path d="M 340 580 L 340 448 C 340 398 420 398 420 448 L 420 580 Z" fill="#3D3528"/>
  <!-- Glass reflection bands (blue-gray highlights) -->
  <path d="M 340 448 C 340 408 420 408 420 448 L 420 460 C 420 420 340 420 340 460 Z" fill="#5B5A66" opacity="0.4"/>
  <rect x="344" y="478" width="72" height="3" fill="#4F4A3F" opacity="0.8"/>
  <rect x="344" y="508" width="72" height="3" fill="#4F4A3F" opacity="0.8"/>
  <rect x="344" y="538" width="72" height="3" fill="#4F4A3F" opacity="0.8"/>
  <!-- Vertical central window line -->
  <rect x="379" y="448" width="2" height="130" fill="#0A0908" opacity="0.4"/>

  <!-- Central Tower (tall modern high-rise, typical of UB skyline) -->
  <rect x="438" y="408" width="42" height="172" fill="#2E2923"/>
  <rect x="453" y="392" width="12" height="16" fill="#2E2923"/>
  <rect x="440" y="430" width="38" height="2" fill="#0A0908" opacity="0.4"/>
  <rect x="440" y="470" width="38" height="2" fill="#0A0908" opacity="0.4"/>
  <rect x="440" y="510" width="38" height="2" fill="#0A0908" opacity="0.4"/>
  <rect x="440" y="550" width="38" height="2" fill="#0A0908" opacity="0.4"/>

  <!-- Shangri-La tower -->
  <rect x="492" y="428" width="34" height="152" fill="#332E27"/>
  <polygon points="492,428 526,428 518,412 500,412" fill="#332E27"/>

  <!-- GOVERNMENT PALACE (Засгийн газрын ордон) — wide horizontal, classical -->
  <!-- Main building base -->
  <rect x="548" y="500" width="228" height="80" fill="#3D3528"/>
  <!-- Roof line -->
  <rect x="548" y="496" width="228" height="6" fill="#5A4E38"/>
  <!-- Central portico (columned entrance) -->
  <rect x="638" y="472" width="50" height="28" fill="#3D3528"/>
  <!-- Pediment (triangular classical top) -->
  <polygon points="635,472 691,472 663,454" fill="#3D3528"/>
  <polygon points="635,472 691,472 663,456" fill="#5A4E38" opacity="0.6"/>
  <!-- Dome (small, central) above pediment -->
  <circle cx="663" cy="454" r="3" fill="#5A4E38"/>
  <!-- Colonnade shadows (vertical column suggestions) -->
  <rect x="562" y="510" width="2" height="70" fill="#0A0908" opacity="0.55"/>
  <rect x="584" y="510" width="2" height="70" fill="#0A0908" opacity="0.55"/>
  <rect x="606" y="510" width="2" height="70" fill="#0A0908" opacity="0.55"/>
  <rect x="628" y="510" width="2" height="70" fill="#0A0908" opacity="0.55"/>
  <rect x="700" y="510" width="2" height="70" fill="#0A0908" opacity="0.55"/>
  <rect x="722" y="510" width="2" height="70" fill="#0A0908" opacity="0.55"/>
  <rect x="744" y="510" width="2" height="70" fill="#0A0908" opacity="0.55"/>
  <rect x="766" y="510" width="2" height="70" fill="#0A0908" opacity="0.55"/>

  <!-- CHINGGIS KHAAN STATUE — centrally in front of the Palace -->
  <!-- Plinth (stone pedestal) -->
  <rect x="650" y="544" width="28" height="36" fill="#1F1C18"/>
  <rect x="648" y="540" width="32" height="6" fill="#2A2520"/>
  <!-- Throne base -->
  <rect x="654" y="520" width="20" height="22" fill="#2A2520"/>
  <!-- Seated body/robe (wider at base, narrower at shoulders) -->
  <path d="M 653 540 L 655 508 L 673 508 L 675 540 Z" fill="#2A2520"/>
  <!-- Upper torso -->
  <rect x="659" y="500" width="10" height="10" fill="#2A2520"/>
  <!-- Head -->
  <circle cx="664" cy="497" r="5" fill="#2A2520"/>
  <!-- Subtle gold crown / halo accent -->
  <circle cx="664" cy="497" r="6" fill="none" stroke="#9A7F57" stroke-opacity="0.35" stroke-width="0.8"/>

  <!-- Continued cityscape (right side) -->
  <rect x="795" y="468" width="52" height="112" fill="#332E27"/>
  <rect x="808" y="450" width="26" height="18" fill="#332E27"/>

  <!-- More mid-rise -->
  <rect x="858" y="498" width="42" height="82" fill="#2A2520"/>
  <rect x="908" y="446" width="48" height="134" fill="#332E27"/>
  <rect x="925" y="432" width="14" height="14" fill="#332E27"/>

  <!-- Misc towers -->
  <rect x="965" y="506" width="36" height="74" fill="#24201B"/>
  <rect x="1008" y="482" width="42" height="98" fill="#2E2923"/>
  <rect x="1058" y="514" width="34" height="66" fill="#24201B"/>
  <rect x="1098" y="490" width="46" height="90" fill="#2E2923"/>
  <rect x="1152" y="514" width="38" height="66" fill="#24201B"/>

  <!-- Steppe ground line (subtle horizon) -->
  <line x1="0" y1="580" x2="1200" y2="580" stroke="#9A7F57" stroke-opacity="0.12" stroke-width="0.5"/>

  <!-- Footer caption -->
  <text x="600" y="604" text-anchor="middle" font-family="Tenor Sans, serif" font-size="13" letter-spacing="5" fill="#73593A">ULAANBAATAR — MMXXVI</text>
</svg>
